<?xml version="1.0" encoding="UTF-8" standalone="no"?>
<!-- Created with Inkscape (http://www.inkscape.org/) -->

<svg
   xmlns:dc="http://purl.org/dc/elements/1.1/"
   xmlns:cc="http://creativecommons.org/ns#"
   xmlns:rdf="http://www.w3.org/1999/02/22-rdf-syntax-ns#"
   xmlns:svg="http://www.w3.org/2000/svg"
   xmlns="http://www.w3.org/2000/svg"
   xmlns:sodipodi="http://sodipodi.sourceforge.net/DTD/sodipodi-0.dtd"
   xmlns:inkscape="http://www.inkscape.org/namespaces/inkscape"
   id="svg8"
   version="1.1"
   viewBox="0 0 23.282814 11.56182"
   height="11.56182mm"
   width="23.282814mm"
   inkscape:version="0.92.4 (5da689c313, 2019-01-14)"
   sodipodi:docname="Inicial2.svg"
   style="enable-background:new">
  <defs
     id="defs2">
    <clipPath
       id="clipPath">
      <path
         inkscape:connector-curvature="0"
         id="path14"
         d="M -0.80180856,-9.0236089 C 25.123335,33.204975 24.856066,33.204975 24.856066,33.204975 l 24.588796,-0.267269 25.925144,-43.030393 z"
         style="fill:none;stroke:#000000;stroke-width:0.26458332px;stroke-linecap:butt;stroke-linejoin:miter;stroke-opacity:1" />
    </clipPath>
    <filter
       y="-0.5"
       x="-0.5"
       width="2"
       height="2"
       id="filter">
      <feGaussianBlur
         id="feGaussianBlur54"
         stdDeviation="5.0" />
    </filter>
    <filter
       style="color-interpolation-filters:sRGB"
       x="-0.25"
       width="1.5"
       y="-0.25"
       height="1.5"
       inkscape:menu="Non-realistic 3D Shaders"
       inkscape:menu-tooltip="Unrealistic reflections with sharp edges"
       inkscape:label="Sharp Deco"
       id="filter4681">
      <feGaussianBlur
         result="result8"
         stdDeviation="5"
         in="SourceGraphic"
         id="feGaussianBlur4661" />
      <feComposite
         in="SourceGraphic"
         result="result19"
         in2="result8"
         operator="out"
         id="feComposite4663" />
      <feComposite
         k2="1"
         operator="arithmetic"
         result="result17"
         in2="result8"
         id="feComposite4665"
         k1="0"
         k3="0"
         k4="0" />
      <feComposite
         in2="result19"
         in="result17"
         operator="atop"
         result="result6"
         id="feComposite4667" />
      <feOffset
         result="result18"
         id="feOffset4669" />
      <feDisplacementMap
         in2="result6"
         result="result4"
         scale="100"
         yChannelSelector="A"
         xChannelSelector="A"
         in="result18"
         id="feDisplacementMap4671" />
      <feComposite
         in2="result18"
         in="result4"
         operator="arithmetic"
         result="result2"
         k3="1"
         k2="1"
         id="feComposite4673"
         k1="0"
         k4="0" />
      <feComposite
         in2="result4"
         operator="over"
         in="result2"
         result="fbSourceGraphic"
         id="feComposite4675" />
      <feComposite
         in2="result18"
         operator="xor"
         result="result15"
         id="feComposite4677" />
      <feComposite
         result="result16"
         in2="SourceGraphic"
         operator="in"
         in="result15"
         id="feComposite4679" />
    </filter>
    <filter
       inkscape:collect="always"
       style="color-interpolation-filters:sRGB"
       id="filter5079">
      <feBlend
         inkscape:collect="always"
         mode="overlay"
         in2="BackgroundImage"
         id="feBlend5081" />
    </filter>
  </defs>
  <sodipodi:namedview
     id="base"
     pagecolor="#ffffff"
     bordercolor="#666666"
     borderopacity="1.0"
     inkscape:pageopacity="0.0"
     inkscape:pageshadow="2"
     inkscape:zoom="4.1290373"
     inkscape:cx="148.24497"
     inkscape:cy="-23.283567"
     inkscape:document-units="mm"
     inkscape:current-layer="g112"
     showgrid="false"
     inkscape:window-width="1366"
     inkscape:window-height="715"
     inkscape:window-x="-8"
     inkscape:window-y="-8"
     inkscape:window-maximized="1"
     showguides="false" />
  <metadata
     id="metadata5">
    <rdf:RDF>
      <cc:Work
         rdf:about="">
        <dc:format>image/svg+xml</dc:format>
        <dc:type
           rdf:resource="http://purl.org/dc/dcmitype/StillImage" />
        <dc:title />
      </cc:Work>
    </rdf:RDF>
  </metadata>
  <g
     inkscape:label="Capa 1"
     inkscape:groupmode="layer"
     id="layer1"
     transform="translate(-1.4174857,3.5759092)">
    <g
       aria-label="DVG"
       style="font-style:normal;font-weight:normal;font-size:10.58333302px;line-height:2.25;font-family:sans-serif;letter-spacing:0px;word-spacing:0px;fill:#000000;fill-opacity:1;stroke:none;stroke-width:0.26458332"
       id="text12"
       transform="matrix(1,0,0,-1,15.501632,39.946841)"
       width="0.0" />
    <g
       width="13.2291666664"
       aria-label="DVG"
       style="font-style:normal;font-weight:normal;font-size:10.58333302px;line-height:2.25;font-family:sans-serif;letter-spacing:0px;word-spacing:0px;fill:#000000;fill-opacity:1;stroke:none;stroke-width:0.26458332"
       id="g112"
       transform="matrix(1.4061423,0,0,-1.2860981,22.995033,43.118661)">
      <path
         id="path110"
         style="opacity:0.70899999;stroke-width:0.21402429;paint-order:fill markers stroke;filter:url(#filter5079);fill:#2b0000"
         d="M 55.313339,12.363271 C 55.432657,10.891837 55.235415,9.4916963 54.685282,8.1971414 54.078125,6.8402332 52.900384,6.1222795 51.186175,6.1187062 48.977339,6.114075 46.424642,6.9434318 43.70563,8.5044297 41.200672,9.9425279 38.807306,11.901759 36.63189,14.19977 c -1.912148,2.020542 -3.548548,4.200516 -4.899211,6.417549 -1.14876,1.890388 -2.032944,3.76135 -2.683537,5.556706 -0.940418,2.595146 -1.018607,4.193527 -0.4743,5.182228 0.478887,0.869967 1.44026,1.268424 2.927789,1.274301 0.51905,6.96e-4 1.095798,-0.05328 1.738954,-0.167499 0.655801,-0.112482 1.447174,-0.31181 2.396524,-0.606159 0,0 1.660492,-1.646517 1.660492,-1.646517 0,0 -0.131811,3.3e-5 -0.131811,3.3e-5 -0.274812,0.124284 -0.649299,0.284216 -1.117387,0.477457 -0.455906,0.188201 -0.867609,0.341182 -1.239099,0.461033 -0.439426,0.140236 -0.891934,0.253115 -1.359563,0.339902 -0.46065,0.09004 -0.933673,0.133643 -1.423712,0.131742 -1.103508,-0.0049 -1.771003,-0.363165 -2.021798,-1.13549 -0.277668,-0.856531 -0.02873,-2.187382 0.914845,-4.22843 1.277884,-2.763131 3.166661,-5.540463 5.697694,-8.005 3.085914,-2.995921 6.249666,-4.755102 8.946665,-4.748087 0.988435,0.0027 1.795548,0.225453 2.408443,0.659585 0.606332,0.422527 0.97523,0.949794 1.114494,1.570579 0,0 -7.348038,8.046282 -7.348038,8.046282 0,0 -4.168051,-0.01383 -4.168051,-0.01383 0,0 -1.774736,2.46987 -1.774736,2.46987 0,0 5.500511,0.01918 5.500511,0.01918 0,0 14.016223,-13.891452 14.016223,-13.891452 M 25.897009,32.456878 c 0,0 -2.583659,-24.911486 -2.583659,-24.911486 0,0 -4.81665,-0.010532 -4.81665,-0.010532 0,0 -0.951075,24.889084 -0.951075,24.889084 0,0 1.312772,0.0051 1.312772,0.0051 0,0 2.354155,-17.743734 2.354155,-17.743734 0,0 3.432359,17.766562 3.432359,17.766562 0,0 1.252099,0.005 1.252099,0.005 M 13.905912,26.083074 C 13.094966,24.195997 11.877448,22.131821 10.162927,19.902324 8.0919395,17.197583 5.6698897,14.665119 2.9979281,12.56646 0.92082835,10.937017 -1.1734508,9.6546402 -3.1945936,8.8154689 -5.3005369,7.9361462 -7.633602,7.4777914 -10.116593,7.4723692 c 0,0 -6.826754,-0.014918 -6.826754,-0.014918 0,0 25.7887462,24.9321718 25.7887462,24.9321718 0,0 2.3008708,0.0092 2.3008708,0.0092 0.899093,0.0027 1.568142,-0.05459 2.013351,-0.176243 0.460651,-0.119991 0.814877,-0.291392 1.062298,-0.518195 0.440275,-0.410703 0.677631,-0.999732 0.692782,-1.810732 0.01691,-0.907084 -0.288639,-2.134712 -1.008786,-3.810452 0,0 0,0 0,0 m -1.894149,0.0315 c 0.725217,1.369722 1.09612,2.37992 1.181782,3.119982 0.07845,0.677307 -0.06935,1.170776 -0.425595,1.510436 -0.249509,0.236484 -0.565497,0.394605 -0.950485,0.479352 -0.376841,0.08819 -0.871214,0.130645 -1.486724,0.128262 0,0 -1.2442034,-0.0048 -1.2442034,-0.0048 0,0 -15.9996417,-17.031232 -15.9996417,-17.031232 0,0 2.7664778,0.0074 2.7664778,0.0074 1.4183659,0.0038 2.8287069,0.236285 4.20022341,0.68745 1.34176789,0.438195 2.79553459,1.217008 4.30233079,2.283704 1.7304358,1.224178 3.2782164,2.680582 4.6142023,4.280069 1.1842718,1.409272 2.2004048,2.950542 3.0416308,4.539331 0,0 0,0 0,0 M 55.313339,12.363271 C 55.432657,10.891837 55.235415,9.4916963 54.685282,8.1971414 54.078125,6.8402332 52.900384,6.1222795 51.186175,6.1187062 48.977339,6.114075 46.424642,6.9434318 43.70563,8.5044297 41.200672,9.9425279 38.807306,11.901759 36.63189,14.19977 c -1.912148,2.020542 -3.548548,4.200516 -4.899211,6.417549 -1.14876,1.890388 -2.032944,3.76135 -2.683537,5.556706 -0.940418,2.595146 -1.018607,4.193527 -0.4743,5.182228 0.478887,0.869967 1.44026,1.268424 2.927789,1.274301 0.51905,6.96e-4 1.095798,-0.05328 1.738954,-0.167499 0.655801,-0.112482 1.447174,-0.31181 2.396524,-0.606159 0,0 1.660492,-1.646517 1.660492,-1.646517 0,0 -0.131811,3.3e-5 -0.131811,3.3e-5 -0.274812,0.124284 -0.649299,0.284216 -1.117387,0.477457 -0.455906,0.188201 -0.867609,0.341182 -1.239099,0.461033 -0.439426,0.140236 -0.891934,0.253115 -1.359563,0.339902 -0.46065,0.09004 -0.933673,0.133643 -1.423712,0.131742 -1.103508,-0.0049 -1.771003,-0.363165 -2.021798,-1.13549 -0.277668,-0.856531 -0.02873,-2.187382 0.914845,-4.22843 1.277884,-2.763131 3.166661,-5.540463 5.697694,-8.005 3.085914,-2.995921 6.249666,-4.755102 8.946665,-4.748087 0.988435,0.0027 1.795548,0.225453 2.408443,0.659585 0.606332,0.422527 0.97523,0.949794 1.114494,1.570579 0,0 -7.348038,8.046282 -7.348038,8.046282 0,0 -4.168051,-0.01383 -4.168051,-0.01383 0,0 -1.774736,2.46987 -1.774736,2.46987 0,0 5.500511,0.01918 5.500511,0.01918 0,0 14.016223,-13.891452 14.016223,-13.891452 M 25.897009,32.456878 c 0,0 -2.583659,-24.911486 -2.583659,-24.911486 0,0 -4.81665,-0.010532 -4.81665,-0.010532 0,0 -0.951075,24.889084 -0.951075,24.889084 0,0 1.312772,0.0051 1.312772,0.0051 0,0 2.354155,-17.743734 2.354155,-17.743734 0,0 3.432359,17.766562 3.432359,17.766562 0,0 1.252099,0.005 1.252099,0.005 M 13.905912,26.083074 C 13.094966,24.195997 11.877448,22.131821 10.162927,19.902324 8.0919395,17.197583 5.6698897,14.665119 2.9979281,12.56646 0.92082835,10.937017 -1.1734508,9.6546402 -3.1945936,8.8154689 -5.3005369,7.9361462 -7.633602,7.4777914 -10.116593,7.4723692 c 0,0 -6.826754,-0.014918 -6.826754,-0.014918 0,0 25.7887462,24.9321718 25.7887462,24.9321718 0,0 2.3008708,0.0092 2.3008708,0.0092 0.899093,0.0027 1.568142,-0.05459 2.013351,-0.176243 0.460651,-0.119991 0.814877,-0.291392 1.062298,-0.518195 0.440275,-0.410703 0.677631,-0.999732 0.692782,-1.810732 0.01691,-0.907084 -0.288639,-2.134712 -1.008786,-3.810452 0,0 0,0 0,0 m -1.894149,0.0315 c 0.725217,1.369722 1.09612,2.37992 1.181782,3.119982 0.07845,0.677307 -0.06935,1.170776 -0.425595,1.510436 -0.249509,0.236484 -0.565497,0.394605 -0.950485,0.479352 -0.376841,0.08819 -0.871214,0.130645 -1.486724,0.128262 0,0 -1.2442034,-0.0048 -1.2442034,-0.0048 0,0 -15.9996417,-17.031232 -15.9996417,-17.031232 0,0 2.7664778,0.0074 2.7664778,0.0074 1.4183659,0.0038 2.8287069,0.236285 4.20022341,0.68745 1.34176789,0.438195 2.79553459,1.217008 4.30233079,2.283704 1.7304358,1.224178 3.2782164,2.680582 4.6142023,4.280069 1.1842718,1.409272 2.2004048,2.950542 3.0416308,4.539331 0,0 0,0 0,0"
         inkscape:connector-curvature="0"
         transform="matrix(0.1908735,0,0,0.28257286,-10.731345,26.337496)" />
    </g>
  </g>
</svg>
