<?xml version="1.0" encoding="UTF-8" standalone="no"?>
<!-- Created with Inkscape (http://www.inkscape.org/) -->

<svg
   xmlns:dc="http://purl.org/dc/elements/1.1/"
   xmlns:cc="http://creativecommons.org/ns#"
   xmlns:rdf="http://www.w3.org/1999/02/22-rdf-syntax-ns#"
   xmlns:svg="http://www.w3.org/2000/svg"
   xmlns="http://www.w3.org/2000/svg"
   xmlns:sodipodi="http://sodipodi.sourceforge.net/DTD/sodipodi-0.dtd"
   xmlns:inkscape="http://www.inkscape.org/namespaces/inkscape"
   width="210mm"
   height="297mm"
   viewBox="0 0 210 297"
   version="1.1"
   id="svg4677"
   inkscape:version="0.92.4 (5da689c313, 2019-01-14)"
   sodipodi:docname="Iniciales.svg">
  <defs
     id="defs4671" />
  <sodipodi:namedview
     id="base"
     pagecolor="#ffffff"
     bordercolor="#666666"
     borderopacity="1.0"
     inkscape:pageopacity="0.0"
     inkscape:pageshadow="2"
     inkscape:zoom="1.4"
     inkscape:cx="224.71289"
     inkscape:cy="928.7314"
     inkscape:document-units="mm"
     inkscape:current-layer="layer1"
     showgrid="false"
     inkscape:window-width="1366"
     inkscape:window-height="715"
     inkscape:window-x="-8"
     inkscape:window-y="-8"
     inkscape:window-maximized="1" />
  <metadata
     id="metadata4674">
    <rdf:RDF>
      <cc:Work
         rdf:about="">
        <dc:format>image/svg+xml</dc:format>
        <dc:type
           rdf:resource="http://purl.org/dc/dcmitype/StillImage" />
        <dc:title></dc:title>
      </cc:Work>
    </rdf:RDF>
  </metadata>
  <g
     inkscape:label="Capa 1"
     inkscape:groupmode="layer"
     id="layer1">
    <g
       aria-label="DVG"
       style="font-style:normal;font-weight:normal;font-size:10.58333302px;line-height:2.25;font-family:sans-serif;letter-spacing:0px;word-spacing:0px;fill:#000000;fill-opacity:1;stroke:none;stroke-width:0.26458332"
       id="text4681"
       transform="matrix(0,-2.7885107,1,0,13.374006,146.84591)">
      <path
         inkscape:connector-curvature="0"
         id="path4685"
         style="stroke-width:0.26458332"
         d="m 33.974848,36.664716 c -1.612639,0.315349 -2.906866,0.443594 -3.953318,0.416005 -0.953238,-0.02258 -1.636559,-0.160315 -2.095739,-0.40586 -0.305641,-0.163987 -0.520758,-0.373927 -0.651173,-0.631002 -0.128634,-0.251265 -0.193074,-0.612218 -0.194626,-1.085482 0,0 -0.0043,-1.302529 -0.0043,-1.302529 0,0 22.100194,-9.549581 22.100194,-9.549581 0,0 -0.0036,2.839282 -0.0036,2.839282 -0.0014,1.108352 -0.347418,2.095515 -1.020533,2.939948 -0.6308,0.815676 -1.472667,1.571402 -2.497403,2.257705 -1.645354,1.094306 -3.621298,2.057852 -5.79899,2.873647 -1.910683,0.715769 -3.895042,1.259612 -5.880509,1.647867 0,0 0,0 0,0 m 0.03641,-0.992794 c 1.582391,-0.370941 3.077878,-0.830118 4.422765,-1.378025 1.478584,-0.602374 2.750573,-1.295672 3.746823,-2.067868 0.761056,-0.591268 1.306739,-1.158324 1.614817,-1.687732 0.330291,-0.54441 0.497882,-1.128927 0.49805,-1.745885 0,0 3.4e-4,-1.247811 3.4e-4,-1.247811 0,0 -15.992849,6.314285 -15.992849,6.314285 0,0 0.0021,0.687076 0.0021,0.687076 0.0011,0.352081 0.05585,0.641001 0.165241,0.868645 0.110597,0.232637 0.318501,0.417638 0.629822,0.556208 0.401442,0.17905 0.95421,0.256583 1.681669,0.225811 0.778586,-0.03007 1.832023,-0.196701 3.231242,-0.524704 0,0 0,0 0,0" />
      <path
         inkscape:connector-curvature="0"
         id="path4687"
         style="stroke-width:0.26458332"
         d="m 49.149145,45.047692 c 0,0 -22.048321,-3.739132 -22.048321,-3.739132 0,0 -0.003,-0.912073 -0.003,-0.912073 0,0 22.064386,-5.576371 22.064386,-5.576371 0,0 -0.0021,1.611358 -0.0021,1.611358 0,0 -20.768599,4.386073 -20.768599,4.386073 0,0 20.759541,2.700278 20.759541,2.700278 0,0 -0.002,1.529867 -0.002,1.529867" />
      <path
         inkscape:connector-curvature="0"
         id="path4689"
         style="stroke-width:0.26458332"
         d="m 27.896546,48.518751 c -0.27041,-0.384442 -0.501107,-0.774486 -0.694701,-1.17194 -0.18523,-0.385848 -0.276991,-0.729398 -0.27801,-1.036356 -0.0013,-0.395692 0.10377,-0.735568 0.319011,-1.024626 0.2204,-0.295986 0.561791,-0.529231 1.037324,-0.700554 0.505183,-0.181849 1.173518,-0.295317 2.035702,-0.33563 0.943593,-0.04303 2.155533,0.01273 3.711599,0.185601 3.44722,0.382959 6.90528,1.185404 10.01162,2.487559 3.786559,1.58725 5.998888,3.452293 5.996146,5.325412 -9.56e-4,0.653191 -0.348985,1.218827 -1.026747,1.685108 -0.634804,0.462643 -1.678508,0.813878 -3.06678,1.051066 0,0 -5.506133,-1.973959 -5.506133,-1.973959 0,0 -5.6e-5,-0.106579 -5.6e-5,-0.106579 0.322726,-0.009 0.756404,-0.03847 1.309893,-0.08961 0.572706,-0.05292 1.065371,-0.13593 1.47005,-0.24963 0.495268,-0.143678 0.913501,-0.360849 1.248652,-0.652498 0.358846,-0.287993 0.541106,-0.684995 0.541317,-1.186701 4.77e-4,-1.13035 -1.350767,-2.289315 -3.77357,-3.353446 -2.09735,-0.920834 -4.545162,-1.562194 -7.125852,-1.948228 -2.252666,-0.336966 -3.747669,-0.35517 -4.703565,-0.114525 -0.869814,0.221313 -1.27688,0.642731 -1.274929,1.277799 7.14e-4,0.232654 0.04906,0.477368 0.145752,0.736035 0.09764,0.263649 0.224664,0.509248 0.382191,0.73752 0,0 3.375211,1.087401 3.375211,1.087401 0,0 -0.0039,-1.740124 -0.0039,-1.740124 0,0 2.045468,0.506823 2.045468,0.506823 0,0 0.0052,2.82108 0.0052,2.82108 0,0 -6.180848,-2.216995 -6.180848,-2.216995" />
    </g>
  </g>
</svg>
