<?xml version="1.0" encoding="UTF-8" standalone="no"?>
<!-- Created with Inkscape (http://www.inkscape.org/) -->

<svg
   xmlns:dc="http://purl.org/dc/elements/1.1/"
   xmlns:cc="http://creativecommons.org/ns#"
   xmlns:rdf="http://www.w3.org/1999/02/22-rdf-syntax-ns#"
   xmlns:svg="http://www.w3.org/2000/svg"
   xmlns="http://www.w3.org/2000/svg"
   xmlns:sodipodi="http://sodipodi.sourceforge.net/DTD/sodipodi-0.dtd"
   xmlns:inkscape="http://www.inkscape.org/namespaces/inkscape"
   width="210mm"
   height="297mm"
   viewBox="0 0 210 297"
   version="1.1"
   id="svg4463"
   inkscape:version="0.92.4 (5da689c313, 2019-01-14)"
   sodipodi:docname="prueba inicial.svg">
  <defs
     id="defs4457" />
  <sodipodi:namedview
     id="base"
     pagecolor="#ffffff"
     bordercolor="#666666"
     borderopacity="1.0"
     inkscape:pageopacity="0.0"
     inkscape:pageshadow="2"
     inkscape:zoom="3.959798"
     inkscape:cx="262.92203"
     inkscape:cy="866.73135"
     inkscape:document-units="mm"
     inkscape:current-layer="layer1"
     showgrid="false"
     inkscape:window-width="1366"
     inkscape:window-height="715"
     inkscape:window-x="-8"
     inkscape:window-y="-8"
     inkscape:window-maximized="1" />
  <metadata
     id="metadata4460">
    <rdf:RDF>
      <cc:Work
         rdf:about="">
        <dc:format>image/svg+xml</dc:format>
        <dc:type
           rdf:resource="http://purl.org/dc/dcmitype/StillImage" />
        <dc:title></dc:title>
      </cc:Work>
    </rdf:RDF>
  </metadata>
  <g
     inkscape:label="Capa 1"
     inkscape:groupmode="layer"
     id="layer1">
    <g
       aria-label="DVG"
       style="font-style:normal;font-weight:normal;font-size:10.58333302px;line-height:2.25;font-family:sans-serif;letter-spacing:0px;word-spacing:0px;fill:#000000;fill-opacity:1;stroke:none;stroke-width:0.26458332"
       id="text4467"
       transform="rotate(-0.33610723,61.079329,65.616193)">
      <path
         inkscape:connector-curvature="0"
         id="path4479"
         style="stroke-width:0.26458332"
         d="M53.722433373033894 66.51745864459838C53.72505346428184 68.04147836850123 53.541931286813266 69.41351120154754 53.17620035406214 70.6238789436265C52.81865307389891 71.82095468861603 52.34605934063677 72.72134327464768 51.763314656972064 73.32683556779428C51.36500861876848 73.73965530151041 50.92517508469358 74.01628501170352 50.44554275017521 74.1589088211513C49.976678899535315 74.29990345221088 49.36771970975286 74.322062153888 48.62671762129501 74.22857918152312C48.62671762129501 74.22857918152312 46.67423608198462 73.98225898806439 46.67423608198462 73.98225898806439C46.67423608198462 73.98225898806439 46.62739961766062 58.9514588313518 46.62739961766062 58.9514588313518C46.62739961766062 58.9514588313518 48.56289089096827 58.71873275114625 48.56289089096827 58.71873275114625C49.35284715229323 58.62374734523542 49.99427847185656 58.660619116675136 50.47755827406654 58.83305574730656C50.971940835266295 59.000423579074855 51.395815545318044 59.26610956327074 51.746276622093944 59.631049982500414C52.35339900112461 60.271115264150865 52.8351076546231 61.16775412210937 53.18573229795412 62.32076539393776C53.539846548758376 63.485254744031614 53.71963084288054 64.8873202920178 53.722433373033894 66.5174586445984C53.722433373033894 66.5174586445984 53.722433373033894 66.51745864459838 53.722433373033894 66.51745864459838M52.44818509364892 66.47992466035733C52.445642744121535 65.18997281422867 52.32085629769634 64.10622135882268 52.07511830694021 63.23374903462646C51.831087472346894 62.36733923142375 51.47150552181568 61.70100423047514 51.000138626851445 61.23521348560427C50.661480331252456 60.901865651536916 50.305738453549715 60.68457509920544 49.933553100027474 60.58168991571351C49.5655861509257 60.47290590657163 49.13086706089709 60.44219279268476 48.63220934969429 60.488077518148515C48.63220934969429 60.488077518148515 47.64761030404203 60.578676852895875 47.64761030404203 60.578676852895875C47.64761030404203 60.578676852895875 47.68199109908058 72.37010183662976 47.68199109908058 72.37010183662976C47.68199109908058 72.37010183662976 48.66480794986817 72.46653493687869 48.66480794986817 72.46653493687869C49.18071643724789 72.51715541092014 49.63662277260936 72.48798052885033 50.029776075753155 72.37737022104399C50.43160092240926 72.26573501829431 50.80375282800876 72.02051725069907 51.14514725196828 71.63974806770365C51.57607273544082 71.15977670885309 51.90147420891747 70.50182557346989 52.118127172419484 69.66641455189385C52.34029838737157 68.82534597794096 52.4507116333968 67.76185485013343 52.44818509364892 66.47992466035736C52.44818509364892 66.47992466035736 52.44818509364892 66.47992466035733 52.44818509364892 66.47992466035733" />
      <path
         inkscape:connector-curvature="0"
         id="path4481"
         style="stroke-width:0.26458332"
         d="M64.61141022759772 56.789037148885136C64.61141022759772 56.789037148885136 60.28743932802905 75.69966670211812 60.28743932802905 75.69966670211812C60.28743932802905 75.69966670211812 58.35181321429779 75.45547294704346 58.35181321429779 75.45547294704346C58.35181321429779 75.45547294704346 54.65057235817456 57.98674172388544 54.65057235817456 57.98674172388544C54.65057235817456 57.98674172388544 56.04720756722109 57.81880842335293 56.04720756722109 57.81880842335293C56.04720756722109 57.81880842335293 59.34225607381036 73.40475088944747 59.34225607381036 73.40475088944747C59.34225607381036 73.40475088944747 62.9394552539769 56.990075269106654 62.9394552539769 56.990075269106654C62.9394552539769 56.990075269106654 64.61141022759772 56.789037148885136 64.61141022759772 56.789037148885136" />
      <path
         inkscape:connector-curvature="0"
         id="path4483"
         style="stroke-width:0.26458332"
         d="M79.26915783387143 76.39610602160897C78.31372281558998 76.86349825568757 77.290886024045 77.24038950997708 76.20570528337477 77.52871757459624C75.15331310605599 77.80135550348606 74.15744074079095 77.87259860373068 73.21503898415764 77.74920224289991C72.02958985790772 77.5939817044197 70.97115952542988 77.23035520086299 70.03150514937067 76.66462497678201C69.1121765192955 76.11113211265281 68.34503175923007 75.36615386479001 67.72220121749751 74.43121383375407C67.1025159127674 73.50046732879957 66.63078393780825 72.38026190102899 66.3020551794893 71.06787791715874C65.97583319634718 69.75662926568975 65.81422741474172 68.24319063362071 65.81538168219731 66.51921838086294C65.8174969166748 63.359980433289294 66.42762678798374 60.82497369260249 67.67461679891177 58.871976319663446C68.96789913824459 56.84638881311123 70.80722012278132 55.662115185013356 73.26286994223204 55.35583103913076C74.15331467220679 55.244769151798224 75.07973761226951 55.282730889451976 76.04376068297145 55.474454133998094C77.03626850614266 55.65933612007863 78.12728176846065 56.059766733506095 79.32297501044026 56.68447191964365C79.32297501044026 56.68447191964365 79.31080588331295 60.33750126445165 79.31080588331295 60.33750126445165C79.31080588331295 60.33750126445165 79.09731844465956 60.3510543687221 79.09731844465956 60.3510543687221C78.85420814203412 60.11920511570328 78.5034053267426 59.81903834154333 78.04731730511253 59.45234984110982C77.59562916695299 59.089198786509975 77.15565206027217 58.794711894655116 76.72712896091484 58.56785784399596C76.2136691908168 58.300793018015376 75.63619368736964 58.09783623491315 74.99725785180365 57.958251541275864C74.3744260197566 57.81012899194187 73.6758237067339 57.77457455020121 72.90524644160085 57.84906139689956C71.21816889105887 58.01214054880479 69.92649080909585 58.887604366316104 68.99774626082957 60.45317525379981C68.09588022473693 61.974369704041244 67.65112395191795 63.96326411231164 67.64856557125253 66.44319112633056C67.64586984591928 69.05625108516476 68.10710450338102 71.11592720802344 69.0477201633656 72.64943499394599C70.00953337277808 74.2081986903572 71.35705095026927 75.08901675857273 73.12711905001414 75.2708713435037C73.79413636138942 75.33939986866012 74.4680703073729 75.3158290818187 75.14903696354531 75.19802729877357C75.84790200897838 75.0791124813684 76.4686790105974 74.894870978847 77.00791660061005 74.64447786194415C77.00791660061005 74.64447786194415 77.0238068635476 69.13667894415913 77.0238068635476 69.13667894415913C77.0238068635476 69.13667894415913 72.72801332391943 69.00254334599975 72.72801332391943 69.00254334599975C72.72801332391943 69.00254334599975 72.73311600936586 66.49631331840659 72.73311600936586 66.49631331840659C72.73311600936586 66.49631331840659 79.3021015549284 66.51236443127074 79.3021015549284 66.51236443127074C79.3021015549284 66.51236443127074 79.26915783387143 76.39610602160897 79.26915783387143 76.39610602160897" />
    </g>
    <flowRoot
       xml:space="preserve"
       id="flowRoot4469"
       style="fill:black;fill-opacity:1;stroke:none;font-family:sans-serif;font-style:normal;font-weight:normal;font-size:40px;line-height:2.25;letter-spacing:0px;word-spacing:0px"><flowRegion
         id="flowRegion4471"><rect
           id="rect4473"
           width="11.111678"
           height="66.670067"
           x="264.65997"
           y="382.07788" /></flowRegion><flowPara
         id="flowPara4475" /></flowRoot>    <g
       aria-label="DVG"
       style="font-style:normal;font-weight:normal;font-size:10.58333302px;line-height:2.25;font-family:sans-serif;letter-spacing:0px;word-spacing:0px;fill:#000000;fill-opacity:1;stroke:none;stroke-width:0.26458332"
       id="text4467-0"
       transform="matrix(1.0389777,-0.00585781,0.0060949,0.99856184,-2.8512178,0.43988514)">
      <path
         inkscape:connector-curvature="0"
         id="path4479-0"
         style="stroke-width:0.26458332"
         d="m 53.722433,66.517459 c 0.0026,1.524019 -0.180502,2.896052 -0.546233,4.10642 -0.357547,1.197076 -0.830141,2.097464 -1.412885,2.702957 -0.398306,0.412819 -0.83814,0.689449 -1.317772,0.832073 -0.468864,0.140994 -1.077823,0.163153 -1.818825,0.06967 0,0 -1.952482,-0.24632 -1.952482,-0.24632 0,0 -0.04684,-15.0308 -0.04684,-15.0308 0,0 1.935491,-0.232726 1.935491,-0.232726 0.789956,-0.09499 1.431387,-0.05811 1.914667,0.114323 0.494383,0.167368 0.918258,0.433054 1.268719,0.797994 0.607122,0.640065 1.088831,1.536704 1.439455,2.689715 0.354115,1.16449 0.533899,2.566555 0.536701,4.196694 0,0 0,0 0,0 m -1.274248,-0.03753 c -0.0025,-1.289952 -0.127329,-2.373704 -0.373067,-3.246176 -0.244031,-0.86641 -0.603612,-1.532745 -1.074979,-1.998536 -0.338659,-0.333347 -0.694401,-0.550638 -1.066586,-0.653523 -0.367967,-0.108784 -0.802686,-0.139497 -1.301344,-0.09361 0,0 -0.984599,0.0906 -0.984599,0.0906 0,0 0.03438,11.791425 0.03438,11.791425 0,0 0.982817,0.09643 0.982817,0.09643 0.515908,0.05062 0.971815,0.02145 1.364968,-0.08916 0.401825,-0.111635 0.773977,-0.356853 1.115371,-0.737622 0.430926,-0.479971 0.756327,-1.137922 0.97298,-1.973333 0.222171,-0.841069 0.332585,-1.90456 0.330058,-3.18649 0,0 0,0 0,0" />
      <path
         inkscape:connector-curvature="0"
         id="path4481-2"
         style="stroke-width:0.26458332"
         d="m 64.61141,56.789037 c 0,0 -4.323971,18.91063 -4.323971,18.91063 0,0 -1.935626,-0.244194 -1.935626,-0.244194 0,0 -3.701241,-17.468731 -3.701241,-17.468731 0,0 1.396636,-0.167934 1.396636,-0.167934 0,0 3.295048,15.585943 3.295048,15.585943 0,0 3.597199,-16.414676 3.597199,-16.414676 0,0 1.671955,-0.201038 1.671955,-0.201038" />
      <path
         inkscape:connector-curvature="0"
         id="path4483-4"
         style="stroke-width:0.26458332"
         d="m 79.269158,76.396106 c -0.955435,0.467392 -1.978272,0.844284 -3.063453,1.132612 -1.052392,0.272638 -2.048264,0.343881 -2.990666,0.220484 -1.185449,-0.15522 -2.243879,-0.518847 -3.183534,-1.084577 -0.919328,-0.553493 -1.686473,-1.298471 -2.309304,-2.233411 -0.619685,-0.930747 -1.091417,-2.050952 -1.420146,-3.363336 -0.326222,-1.311249 -0.487828,-2.824687 -0.486673,-4.54866 0.0021,-3.159238 0.612245,-5.694244 1.859235,-7.647242 1.293282,-2.025587 3.132603,-3.209861 5.588253,-3.516145 0.890445,-0.111062 1.816868,-0.0731 2.780891,0.118623 0.992508,0.184882 2.083521,0.585313 3.279214,1.210018 0,0 -0.01217,3.653029 -0.01217,3.653029 0,0 -0.213488,0.01355 -0.213488,0.01355 -0.24311,-0.231849 -0.593913,-0.532016 -1.050001,-0.898704 -0.451688,-0.363151 -0.891665,-0.657638 -1.320188,-0.884492 -0.51346,-0.267065 -1.090935,-0.470022 -1.729871,-0.609606 -0.622832,-0.148123 -1.321434,-0.183677 -2.092012,-0.109191 -1.687077,0.16308 -2.978755,1.038543 -3.9075,2.604114 -0.901866,1.521195 -1.346622,3.510089 -1.34918,5.990016 -0.0027,2.61306 0.458539,4.672736 1.399154,6.206244 0.961813,1.558764 2.309331,2.439582 4.079399,2.621436 0.667017,0.06853 1.340951,0.04496 2.021918,-0.07284 0.698865,-0.118915 1.319642,-0.303156 1.85888,-0.553549 0,0 0.01589,-5.507799 0.01589,-5.507799 0,0 -4.295794,-0.134136 -4.295794,-0.134136 0,0 0.0051,-2.50623 0.0051,-2.50623 0,0 6.568986,0.01605 6.568986,0.01605 0,0 -0.03294,9.883742 -0.03294,9.883742" />
    </g>
    <g
       aria-label="DVG"
       style="font-style:normal;font-weight:normal;font-size:10.58333302px;line-height:2.25;font-family:sans-serif;letter-spacing:0px;word-spacing:0px;fill:#000000;fill-opacity:1;stroke:none;stroke-width:0.26458332"
       id="text4467-3"
       transform="rotate(-0.33610718,58.579867,126.50771)">
      <path
         inkscape:connector-curvature="0"
         id="path4479-4"
         style="stroke-width:0.26458332"
         d="m 53.722433,66.517459 c 0.0026,1.524019 -0.180502,2.896052 -0.546233,4.10642 -0.357547,1.197076 -0.830141,2.097464 -1.412885,2.702957 -0.398306,0.412819 -0.83814,0.689449 -1.317772,0.832073 -0.468864,0.140994 -1.077823,0.163153 -1.818825,0.06967 0,0 -1.952482,-0.24632 -1.952482,-0.24632 0,0 -0.04684,-15.0308 -0.04684,-15.0308 0,0 1.935491,-0.232726 1.935491,-0.232726 0.789956,-0.09499 1.431387,-0.05811 1.914667,0.114323 0.494383,0.167368 0.918258,0.433054 1.268719,0.797994 0.607122,0.640065 1.088831,1.536704 1.439455,2.689715 0.354115,1.16449 0.533899,2.566555 0.536701,4.196694 0,0 0,0 0,0 m -1.274248,-0.03753 c -0.0025,-1.289952 -0.127329,-2.373704 -0.373067,-3.246176 -0.244031,-0.86641 -0.603612,-1.532745 -1.074979,-1.998536 -0.338659,-0.333347 -0.694401,-0.550638 -1.066586,-0.653523 -0.367967,-0.108784 -0.802686,-0.139497 -1.301344,-0.09361 0,0 -0.984599,0.0906 -0.984599,0.0906 0,0 0.03438,11.791425 0.03438,11.791425 0,0 0.982817,0.09643 0.982817,0.09643 0.515908,0.05062 0.971815,0.02145 1.364968,-0.08916 0.401825,-0.111635 0.773977,-0.356853 1.115371,-0.737622 0.430926,-0.479971 0.756327,-1.137922 0.97298,-1.973333 0.222171,-0.841069 0.332585,-1.90456 0.330058,-3.18649 0,0 0,0 0,0" />
      <path
         inkscape:connector-curvature="0"
         id="path4481-7"
         style="stroke-width:0.26458332"
         d="m 64.61141,56.789037 c 0,0 -4.323971,18.91063 -4.323971,18.91063 0,0 -1.935626,-0.244194 -1.935626,-0.244194 0,0 -3.701241,-17.468731 -3.701241,-17.468731 0,0 1.396636,-0.167934 1.396636,-0.167934 0,0 3.295048,15.585943 3.295048,15.585943 0,0 3.597199,-16.414676 3.597199,-16.414676 0,0 1.671955,-0.201038 1.671955,-0.201038" />
      <path
         inkscape:connector-curvature="0"
         id="path4483-3"
         style="stroke-width:0.26458332"
         d="m 79.269158,76.396106 c -0.955435,0.467392 -1.978272,0.844284 -3.063453,1.132612 -1.052392,0.272638 -2.048264,0.343881 -2.990666,0.220484 -1.185449,-0.15522 -2.243879,-0.518847 -3.183534,-1.084577 -0.919328,-0.553493 -1.686473,-1.298471 -2.309304,-2.233411 -0.619685,-0.930747 -1.091417,-2.050952 -1.420146,-3.363336 -0.326222,-1.311249 -0.487828,-2.824687 -0.486673,-4.54866 0.0021,-3.159238 0.612245,-5.694244 1.859235,-7.647242 1.293282,-2.025587 3.132603,-3.209861 5.588253,-3.516145 0.890445,-0.111062 1.816868,-0.0731 2.780891,0.118623 0.992508,0.184882 2.083521,0.585313 3.279214,1.210018 0,0 -0.01217,3.653029 -0.01217,3.653029 0,0 -0.213488,0.01355 -0.213488,0.01355 -0.24311,-0.231849 -0.593913,-0.532016 -1.050001,-0.898704 -0.451688,-0.363151 -0.891665,-0.657638 -1.320188,-0.884492 -0.51346,-0.267065 -1.090935,-0.470022 -1.729871,-0.609606 -0.622832,-0.148123 -1.321434,-0.183677 -2.092012,-0.109191 -1.687077,0.16308 -2.978755,1.038543 -3.9075,2.604114 -0.901866,1.521195 -1.346622,3.510089 -1.34918,5.990016 -0.0027,2.61306 0.458539,4.672736 1.399154,6.206244 0.961813,1.558764 2.309331,2.439582 4.079399,2.621436 0.667017,0.06853 1.340951,0.04496 2.021918,-0.07284 0.698865,-0.118915 1.319642,-0.303156 1.85888,-0.553549 0,0 0.01589,-5.507799 0.01589,-5.507799 0,0 -4.295794,-0.134136 -4.295794,-0.134136 0,0 0.0051,-2.50623 0.0051,-2.50623 0,0 6.568986,0.01605 6.568986,0.01605 0,0 -0.03294,9.883742 -0.03294,9.883742" />
    </g>
    <g
       aria-label="DVG"
       style="font-style:normal;font-weight:normal;font-size:10.58333302px;line-height:2.25;font-family:sans-serif;letter-spacing:0px;word-spacing:0px;fill:#000000;fill-opacity:1;stroke:none;stroke-width:0.26458332"
       id="text4467-7"
       transform="matrix(1.0303571,-0.0059487,0.00604433,1.0140573,-2.9624627,-0.54723198)">
      <path
         inkscape:connector-curvature="0"
         id="path4479-3"
         style="stroke-width:0.26458332"
         d="m 53.722433,66.517459 c 0.0026,1.524019 -0.180502,2.896052 -0.546233,4.10642 -0.357547,1.197076 -0.830141,2.097464 -1.412885,2.702957 -0.398306,0.412819 -0.83814,0.689449 -1.317772,0.832073 -0.468864,0.140994 -1.077823,0.163153 -1.818825,0.06967 0,0 -1.952482,-0.24632 -1.952482,-0.24632 0,0 -0.04684,-15.0308 -0.04684,-15.0308 0,0 1.935491,-0.232726 1.935491,-0.232726 0.789956,-0.09499 1.431387,-0.05811 1.914667,0.114323 0.494383,0.167368 0.918258,0.433054 1.268719,0.797994 0.607122,0.640065 1.088831,1.536704 1.439455,2.689715 0.354115,1.16449 0.533899,2.566555 0.536701,4.196694 0,0 0,0 0,0 m -1.274248,-0.03753 c -0.0025,-1.289952 -0.127329,-2.373704 -0.373067,-3.246176 -0.244031,-0.86641 -0.603612,-1.532745 -1.074979,-1.998536 -0.338659,-0.333347 -0.694401,-0.550638 -1.066586,-0.653523 -0.367967,-0.108784 -0.802686,-0.139497 -1.301344,-0.09361 0,0 -0.984599,0.0906 -0.984599,0.0906 0,0 0.03438,11.791425 0.03438,11.791425 0,0 0.982817,0.09643 0.982817,0.09643 0.515908,0.05062 0.971815,0.02145 1.364968,-0.08916 0.401825,-0.111635 0.773977,-0.356853 1.115371,-0.737622 0.430926,-0.479971 0.756327,-1.137922 0.97298,-1.973333 0.222171,-0.841069 0.332585,-1.90456 0.330058,-3.18649 0,0 0,0 0,0" />
      <path
         inkscape:connector-curvature="0"
         id="path4481-5"
         style="stroke-width:0.26458332"
         d="m 64.61141,56.789037 c 0,0 -4.323971,18.91063 -4.323971,18.91063 0,0 -1.935626,-0.244194 -1.935626,-0.244194 0,0 -3.701241,-17.468731 -3.701241,-17.468731 0,0 1.396636,-0.167934 1.396636,-0.167934 0,0 3.295048,15.585943 3.295048,15.585943 0,0 3.597199,-16.414676 3.597199,-16.414676 0,0 1.671955,-0.201038 1.671955,-0.201038" />
      <path
         inkscape:connector-curvature="0"
         id="path4483-1"
         style="stroke-width:0.26458332"
         d="m 79.269158,76.396106 c -0.955435,0.467392 -1.978272,0.844284 -3.063453,1.132612 -1.052392,0.272638 -2.048264,0.343881 -2.990666,0.220484 -1.185449,-0.15522 -2.243879,-0.518847 -3.183534,-1.084577 -0.919328,-0.553493 -1.686473,-1.298471 -2.309304,-2.233411 -0.619685,-0.930747 -1.091417,-2.050952 -1.420146,-3.363336 -0.326222,-1.311249 -0.487828,-2.824687 -0.486673,-4.54866 0.0021,-3.159238 0.612245,-5.694244 1.859235,-7.647242 1.293282,-2.025587 3.132603,-3.209861 5.588253,-3.516145 0.890445,-0.111062 1.816868,-0.0731 2.780891,0.118623 0.992508,0.184882 2.083521,0.585313 3.279214,1.210018 0,0 -0.01217,3.653029 -0.01217,3.653029 0,0 -0.213488,0.01355 -0.213488,0.01355 -0.24311,-0.231849 -0.593913,-0.532016 -1.050001,-0.898704 -0.451688,-0.363151 -0.891665,-0.657638 -1.320188,-0.884492 -0.51346,-0.267065 -1.090935,-0.470022 -1.729871,-0.609606 -0.622832,-0.148123 -1.321434,-0.183677 -2.092012,-0.109191 -1.687077,0.16308 -2.978755,1.038543 -3.9075,2.604114 -0.901866,1.521195 -1.346622,3.510089 -1.34918,5.990016 -0.0027,2.61306 0.458539,4.672736 1.399154,6.206244 0.961813,1.558764 2.309331,2.439582 4.079399,2.621436 0.667017,0.06853 1.340951,0.04496 2.021918,-0.07284 0.698865,-0.118915 1.319642,-0.303156 1.85888,-0.553549 0,0 0.01589,-5.507799 0.01589,-5.507799 0,0 -4.295794,-0.134136 -4.295794,-0.134136 0,0 0.0051,-2.50623 0.0051,-2.50623 0,0 6.568986,0.01605 6.568986,0.01605 0,0 -0.03294,9.883742 -0.03294,9.883742" />
    </g>
    <g
       aria-label="DVG"
       style="font-style:normal;font-weight:normal;font-size:10.58333302px;line-height:2.25;font-family:sans-serif;letter-spacing:0px;word-spacing:0px;fill:#000000;fill-opacity:1;stroke:none;stroke-width:0.26458332"
       id="text4467-5"
       transform="rotate(-0.33610718,52.820169,343.74552)">
      <path
         inkscape:connector-curvature="0"
         id="path4479-44"
         style="stroke-width:0.26458332"
         d="m 53.722433,66.517459 c 0.0026,1.524019 -0.180502,2.896052 -0.546233,4.10642 -0.357547,1.197076 -0.830141,2.097464 -1.412885,2.702957 -0.398306,0.412819 -0.83814,0.689449 -1.317772,0.832073 -0.468864,0.140994 -1.077823,0.163153 -1.818825,0.06967 0,0 -1.952482,-0.24632 -1.952482,-0.24632 0,0 -0.04684,-15.0308 -0.04684,-15.0308 0,0 1.935491,-0.232726 1.935491,-0.232726 0.789956,-0.09499 1.431387,-0.05811 1.914667,0.114323 0.494383,0.167368 0.918258,0.433054 1.268719,0.797994 0.607122,0.640065 1.088831,1.536704 1.439455,2.689715 0.354115,1.16449 0.533899,2.566555 0.536701,4.196694 0,0 0,0 0,0 m -1.274248,-0.03753 c -0.0025,-1.289952 -0.127329,-2.373704 -0.373067,-3.246176 -0.244031,-0.86641 -0.603612,-1.532745 -1.074979,-1.998536 -0.338659,-0.333347 -0.694401,-0.550638 -1.066586,-0.653523 -0.367967,-0.108784 -0.802686,-0.139497 -1.301344,-0.09361 0,0 -0.984599,0.0906 -0.984599,0.0906 0,0 0.03438,11.791425 0.03438,11.791425 0,0 0.982817,0.09643 0.982817,0.09643 0.515908,0.05062 0.971815,0.02145 1.364968,-0.08916 0.401825,-0.111635 0.773977,-0.356853 1.115371,-0.737622 0.430926,-0.479971 0.756327,-1.137922 0.97298,-1.973333 0.222171,-0.841069 0.332585,-1.90456 0.330058,-3.18649 0,0 0,0 0,0" />
      <path
         inkscape:connector-curvature="0"
         id="path4481-4"
         style="stroke-width:0.26458332"
         d="m 64.61141,56.789037 c 0,0 -4.323971,18.91063 -4.323971,18.91063 0,0 -1.935626,-0.244194 -1.935626,-0.244194 0,0 -3.701241,-17.468731 -3.701241,-17.468731 0,0 1.396636,-0.167934 1.396636,-0.167934 0,0 3.295048,15.585943 3.295048,15.585943 0,0 3.597199,-16.414676 3.597199,-16.414676 0,0 1.671955,-0.201038 1.671955,-0.201038" />
      <path
         inkscape:connector-curvature="0"
         id="path4483-8"
         style="stroke-width:0.26458332"
         d="m 79.269158,76.396106 c -0.955435,0.467392 -1.978272,0.844284 -3.063453,1.132612 -1.052392,0.272638 -2.048264,0.343881 -2.990666,0.220484 -1.185449,-0.15522 -2.243879,-0.518847 -3.183534,-1.084577 -0.919328,-0.553493 -1.686473,-1.298471 -2.309304,-2.233411 -0.619685,-0.930747 -1.091417,-2.050952 -1.420146,-3.363336 -0.326222,-1.311249 -0.487828,-2.824687 -0.486673,-4.54866 0.0021,-3.159238 0.612245,-5.694244 1.859235,-7.647242 1.293282,-2.025587 3.132603,-3.209861 5.588253,-3.516145 0.890445,-0.111062 1.816868,-0.0731 2.780891,0.118623 0.992508,0.184882 2.083521,0.585313 3.279214,1.210018 0,0 -0.01217,3.653029 -0.01217,3.653029 0,0 -0.213488,0.01355 -0.213488,0.01355 -0.24311,-0.231849 -0.593913,-0.532016 -1.050001,-0.898704 -0.451688,-0.363151 -0.891665,-0.657638 -1.320188,-0.884492 -0.51346,-0.267065 -1.090935,-0.470022 -1.729871,-0.609606 -0.622832,-0.148123 -1.321434,-0.183677 -2.092012,-0.109191 -1.687077,0.16308 -2.978755,1.038543 -3.9075,2.604114 -0.901866,1.521195 -1.346622,3.510089 -1.34918,5.990016 -0.0027,2.61306 0.458539,4.672736 1.399154,6.206244 0.961813,1.558764 2.309331,2.439582 4.079399,2.621436 0.667017,0.06853 1.340951,0.04496 2.021918,-0.07284 0.698865,-0.118915 1.319642,-0.303156 1.85888,-0.553549 0,0 0.01589,-5.507799 0.01589,-5.507799 0,0 -4.295794,-0.134136 -4.295794,-0.134136 0,0 0.0051,-2.50623 0.0051,-2.50623 0,0 6.568986,0.01605 6.568986,0.01605 0,0 -0.03294,9.883742 -0.03294,9.883742" />
    </g>
    <g
       aria-label="DVG"
       style="font-style:normal;font-weight:normal;font-size:10.58333302px;line-height:2.25;font-family:sans-serif;letter-spacing:0px;word-spacing:0px;fill:#000000;fill-opacity:1;stroke:none;stroke-width:0.26458332"
       id="text4467-55"
       transform="matrix(0.99998279,-0.0059706,0.00586614,1.0177891,-2.0652495,-0.66101197)">
      <path
         inkscape:connector-curvature="0"
         id="path4479-2"
         style="stroke-width:0.26458332"
         d="m 53.722433,66.517459 c 0.0026,1.524019 -0.180502,2.896052 -0.546233,4.10642 -0.357547,1.197076 -0.830141,2.097464 -1.412885,2.702957 -0.398306,0.412819 -0.83814,0.689449 -1.317772,0.832073 -0.468864,0.140994 -1.077823,0.163153 -1.818825,0.06967 0,0 -1.952482,-0.24632 -1.952482,-0.24632 0,0 -0.04684,-15.0308 -0.04684,-15.0308 0,0 1.935491,-0.232726 1.935491,-0.232726 0.789956,-0.09499 1.431387,-0.05811 1.914667,0.114323 0.494383,0.167368 0.918258,0.433054 1.268719,0.797994 0.607122,0.640065 1.088831,1.536704 1.439455,2.689715 0.354115,1.16449 0.533899,2.566555 0.536701,4.196694 0,0 0,0 0,0 m -1.274248,-0.03753 c -0.0025,-1.289952 -0.127329,-2.373704 -0.373067,-3.246176 -0.244031,-0.86641 -0.603612,-1.532745 -1.074979,-1.998536 -0.338659,-0.333347 -0.694401,-0.550638 -1.066586,-0.653523 -0.367967,-0.108784 -0.802686,-0.139497 -1.301344,-0.09361 0,0 -0.984599,0.0906 -0.984599,0.0906 0,0 0.03438,11.791425 0.03438,11.791425 0,0 0.982817,0.09643 0.982817,0.09643 0.515908,0.05062 0.971815,0.02145 1.364968,-0.08916 0.401825,-0.111635 0.773977,-0.356853 1.115371,-0.737622 0.430926,-0.479971 0.756327,-1.137922 0.97298,-1.973333 0.222171,-0.841069 0.332585,-1.90456 0.330058,-3.18649 0,0 0,0 0,0" />
      <path
         inkscape:connector-curvature="0"
         id="path4481-29"
         style="stroke-width:0.26458332"
         d="m 64.61141,56.789037 c 0,0 -4.323971,18.91063 -4.323971,18.91063 0,0 -1.935626,-0.244194 -1.935626,-0.244194 0,0 -3.701241,-17.468731 -3.701241,-17.468731 0,0 1.396636,-0.167934 1.396636,-0.167934 0,0 3.295048,15.585943 3.295048,15.585943 0,0 3.597199,-16.414676 3.597199,-16.414676 0,0 1.671955,-0.201038 1.671955,-0.201038" />
      <path
         inkscape:connector-curvature="0"
         id="path4483-14"
         style="stroke-width:0.26458332"
         d="m 79.269158,76.396106 c -0.955435,0.467392 -1.978272,0.844284 -3.063453,1.132612 -1.052392,0.272638 -2.048264,0.343881 -2.990666,0.220484 -1.185449,-0.15522 -2.243879,-0.518847 -3.183534,-1.084577 -0.919328,-0.553493 -1.686473,-1.298471 -2.309304,-2.233411 -0.619685,-0.930747 -1.091417,-2.050952 -1.420146,-3.363336 -0.326222,-1.311249 -0.487828,-2.824687 -0.486673,-4.54866 0.0021,-3.159238 0.612245,-5.694244 1.859235,-7.647242 1.293282,-2.025587 3.132603,-3.209861 5.588253,-3.516145 0.890445,-0.111062 1.816868,-0.0731 2.780891,0.118623 0.992508,0.184882 2.083521,0.585313 3.279214,1.210018 0,0 -0.01217,3.653029 -0.01217,3.653029 0,0 -0.213488,0.01355 -0.213488,0.01355 -0.24311,-0.231849 -0.593913,-0.532016 -1.050001,-0.898704 -0.451688,-0.363151 -0.891665,-0.657638 -1.320188,-0.884492 -0.51346,-0.267065 -1.090935,-0.470022 -1.729871,-0.609606 -0.622832,-0.148123 -1.321434,-0.183677 -2.092012,-0.109191 -1.687077,0.16308 -2.978755,1.038543 -3.9075,2.604114 -0.901866,1.521195 -1.346622,3.510089 -1.34918,5.990016 -0.0027,2.61306 0.458539,4.672736 1.399154,6.206244 0.961813,1.558764 2.309331,2.439582 4.079399,2.621436 0.667017,0.06853 1.340951,0.04496 2.021918,-0.07284 0.698865,-0.118915 1.319642,-0.303156 1.85888,-0.553549 0,0 0.01589,-5.507799 0.01589,-5.507799 0,0 -4.295794,-0.134136 -4.295794,-0.134136 0,0 0.0051,-2.50623 0.0051,-2.50623 0,0 6.568986,0.01605 6.568986,0.01605 0,0 -0.03294,9.883742 -0.03294,9.883742" />
    </g>
    <g
       aria-label="DVG"
       style="font-style:normal;font-weight:normal;font-size:10.58333302px;line-height:2.25;font-family:sans-serif;letter-spacing:0px;word-spacing:0px;fill:#000000;fill-opacity:1;stroke:none;stroke-width:0.26458332"
       id="text4467-54"
       transform="rotate(-0.33610718,59.040157,448.84734)">
      <path
         inkscape:connector-curvature="0"
         id="path4479-1"
         style="stroke-width:0.26458332"
         d="m 53.722433,66.517459 c 0.0026,1.524019 -0.180502,2.896052 -0.546233,4.10642 -0.357547,1.197076 -0.830141,2.097464 -1.412885,2.702957 -0.398306,0.412819 -0.83814,0.689449 -1.317772,0.832073 -0.468864,0.140994 -1.077823,0.163153 -1.818825,0.06967 0,0 -1.952482,-0.24632 -1.952482,-0.24632 0,0 -0.04684,-15.0308 -0.04684,-15.0308 0,0 1.935491,-0.232726 1.935491,-0.232726 0.789956,-0.09499 1.431387,-0.05811 1.914667,0.114323 0.494383,0.167368 0.918258,0.433054 1.268719,0.797994 0.607122,0.640065 1.088831,1.536704 1.439455,2.689715 0.354115,1.16449 0.533899,2.566555 0.536701,4.196694 0,0 0,0 0,0 m -1.274248,-0.03753 c -0.0025,-1.289952 -0.127329,-2.373704 -0.373067,-3.246176 -0.244031,-0.86641 -0.603612,-1.532745 -1.074979,-1.998536 -0.338659,-0.333347 -0.694401,-0.550638 -1.066586,-0.653523 -0.367967,-0.108784 -0.802686,-0.139497 -1.301344,-0.09361 0,0 -0.984599,0.0906 -0.984599,0.0906 0,0 0.03438,11.791425 0.03438,11.791425 0,0 0.982817,0.09643 0.982817,0.09643 0.515908,0.05062 0.971815,0.02145 1.364968,-0.08916 0.401825,-0.111635 0.773977,-0.356853 1.115371,-0.737622 0.430926,-0.479971 0.756327,-1.137922 0.97298,-1.973333 0.222171,-0.841069 0.332585,-1.90456 0.330058,-3.18649 0,0 0,0 0,0" />
      <path
         inkscape:connector-curvature="0"
         id="path4481-9"
         style="stroke-width:0.26458332"
         d="m 64.61141,56.789037 c 0,0 -4.323971,18.91063 -4.323971,18.91063 0,0 -1.935626,-0.244194 -1.935626,-0.244194 0,0 -3.701241,-17.468731 -3.701241,-17.468731 0,0 1.396636,-0.167934 1.396636,-0.167934 0,0 3.295048,15.585943 3.295048,15.585943 0,0 3.597199,-16.414676 3.597199,-16.414676 0,0 1.671955,-0.201038 1.671955,-0.201038" />
      <path
         inkscape:connector-curvature="0"
         id="path4483-6"
         style="stroke-width:0.26458332"
         d="m 79.269158,76.396106 c -0.955435,0.467392 -1.978272,0.844284 -3.063453,1.132612 -1.052392,0.272638 -2.048264,0.343881 -2.990666,0.220484 -1.185449,-0.15522 -2.243879,-0.518847 -3.183534,-1.084577 -0.919328,-0.553493 -1.686473,-1.298471 -2.309304,-2.233411 -0.619685,-0.930747 -1.091417,-2.050952 -1.420146,-3.363336 -0.326222,-1.311249 -0.487828,-2.824687 -0.486673,-4.54866 0.0021,-3.159238 0.612245,-5.694244 1.859235,-7.647242 1.293282,-2.025587 3.132603,-3.209861 5.588253,-3.516145 0.890445,-0.111062 1.816868,-0.0731 2.780891,0.118623 0.992508,0.184882 2.083521,0.585313 3.279214,1.210018 0,0 -0.01217,3.653029 -0.01217,3.653029 0,0 -0.213488,0.01355 -0.213488,0.01355 -0.24311,-0.231849 -0.593913,-0.532016 -1.050001,-0.898704 -0.451688,-0.363151 -0.891665,-0.657638 -1.320188,-0.884492 -0.51346,-0.267065 -1.090935,-0.470022 -1.729871,-0.609606 -0.622832,-0.148123 -1.321434,-0.183677 -2.092012,-0.109191 -1.687077,0.16308 -2.978755,1.038543 -3.9075,2.604114 -0.901866,1.521195 -1.346622,3.510089 -1.34918,5.990016 -0.0027,2.61306 0.458539,4.672736 1.399154,6.206244 0.961813,1.558764 2.309331,2.439582 4.079399,2.621436 0.667017,0.06853 1.340951,0.04496 2.021918,-0.07284 0.698865,-0.118915 1.319642,-0.303156 1.85888,-0.553549 0,0 0.01589,-5.507799 0.01589,-5.507799 0,0 -4.295794,-0.134136 -4.295794,-0.134136 0,0 0.0051,-2.50623 0.0051,-2.50623 0,0 6.568986,0.01605 6.568986,0.01605 0,0 -0.03294,9.883742 -0.03294,9.883742" />
    </g>
    <g
       aria-label="DVG"
       style="font-style:normal;font-weight:normal;font-size:10.58333302px;line-height:2.25;font-family:sans-serif;letter-spacing:0px;word-spacing:0px;fill:#000000;fill-opacity:1;stroke:none;stroke-width:0.26458332"
       id="text4467-6"
       transform="rotate(-0.33610718,59.040157,448.84734)">
      <path
         inkscape:connector-curvature="0"
         id="path4479-9"
         style="stroke-width:0.26458332"
         d="m 53.722433,66.517459 c 0.0026,1.524019 -0.180502,2.896052 -0.546233,4.10642 -0.357547,1.197076 -0.830141,2.097464 -1.412885,2.702957 -0.398306,0.412819 -0.83814,0.689449 -1.317772,0.832073 -0.468864,0.140994 -1.077823,0.163153 -1.818825,0.06967 0,0 -1.952482,-0.24632 -1.952482,-0.24632 0,0 -0.04684,-15.0308 -0.04684,-15.0308 0,0 1.935491,-0.232726 1.935491,-0.232726 0.789956,-0.09499 1.431387,-0.05811 1.914667,0.114323 0.494383,0.167368 0.918258,0.433054 1.268719,0.797994 0.607122,0.640065 1.088831,1.536704 1.439455,2.689715 0.354115,1.16449 0.533899,2.566555 0.536701,4.196694 0,0 0,0 0,0 m -1.274248,-0.03753 c -0.0025,-1.289952 -0.127329,-2.373704 -0.373067,-3.246176 -0.244031,-0.86641 -0.603612,-1.532745 -1.074979,-1.998536 -0.338659,-0.333347 -0.694401,-0.550638 -1.066586,-0.653523 -0.367967,-0.108784 -0.802686,-0.139497 -1.301344,-0.09361 0,0 -0.984599,0.0906 -0.984599,0.0906 0,0 0.03438,11.791425 0.03438,11.791425 0,0 0.982817,0.09643 0.982817,0.09643 0.515908,0.05062 0.971815,0.02145 1.364968,-0.08916 0.401825,-0.111635 0.773977,-0.356853 1.115371,-0.737622 0.430926,-0.479971 0.756327,-1.137922 0.97298,-1.973333 0.222171,-0.841069 0.332585,-1.90456 0.330058,-3.18649 0,0 0,0 0,0" />
      <path
         inkscape:connector-curvature="0"
         id="path4481-1"
         style="stroke-width:0.26458332"
         d="m 64.61141,56.789037 c 0,0 -4.323971,18.91063 -4.323971,18.91063 0,0 -1.935626,-0.244194 -1.935626,-0.244194 0,0 -3.701241,-17.468731 -3.701241,-17.468731 0,0 1.396636,-0.167934 1.396636,-0.167934 0,0 3.295048,15.585943 3.295048,15.585943 0,0 3.597199,-16.414676 3.597199,-16.414676 0,0 1.671955,-0.201038 1.671955,-0.201038" />
      <path
         inkscape:connector-curvature="0"
         id="path4483-7"
         style="stroke-width:0.26458332"
         d="m 79.269158,76.396106 c -0.955435,0.467392 -1.978272,0.844284 -3.063453,1.132612 -1.052392,0.272638 -2.048264,0.343881 -2.990666,0.220484 -1.185449,-0.15522 -2.243879,-0.518847 -3.183534,-1.084577 -0.919328,-0.553493 -1.686473,-1.298471 -2.309304,-2.233411 -0.619685,-0.930747 -1.091417,-2.050952 -1.420146,-3.363336 -0.326222,-1.311249 -0.487828,-2.824687 -0.486673,-4.54866 0.0021,-3.159238 0.612245,-5.694244 1.859235,-7.647242 1.293282,-2.025587 3.132603,-3.209861 5.588253,-3.516145 0.890445,-0.111062 1.816868,-0.0731 2.780891,0.118623 0.992508,0.184882 2.083521,0.585313 3.279214,1.210018 0,0 -0.01217,3.653029 -0.01217,3.653029 0,0 -0.213488,0.01355 -0.213488,0.01355 -0.24311,-0.231849 -0.593913,-0.532016 -1.050001,-0.898704 -0.451688,-0.363151 -0.891665,-0.657638 -1.320188,-0.884492 -0.51346,-0.267065 -1.090935,-0.470022 -1.729871,-0.609606 -0.622832,-0.148123 -1.321434,-0.183677 -2.092012,-0.109191 -1.687077,0.16308 -2.978755,1.038543 -3.9075,2.604114 -0.901866,1.521195 -1.346622,3.510089 -1.34918,5.990016 -0.0027,2.61306 0.458539,4.672736 1.399154,6.206244 0.961813,1.558764 2.309331,2.439582 4.079399,2.621436 0.667017,0.06853 1.340951,0.04496 2.021918,-0.07284 0.698865,-0.118915 1.319642,-0.303156 1.85888,-0.553549 0,0 0.01589,-5.507799 0.01589,-5.507799 0,0 -4.295794,-0.134136 -4.295794,-0.134136 0,0 0.0051,-2.50623 0.0051,-2.50623 0,0 6.568986,0.01605 6.568986,0.01605 0,0 -0.03294,9.883742 -0.03294,9.883742" />
    </g>
    <g
       aria-label="DVG"
       style="font-style:normal;font-weight:normal;font-size:10.58333302px;line-height:2.25;font-family:sans-serif;letter-spacing:0px;word-spacing:0px;fill:#000000;fill-opacity:1;stroke:none;stroke-width:0.26458332"
       id="text4467-1"
       transform="rotate(-0.33610718,59.040157,448.84734)">
      <path
         inkscape:connector-curvature="0"
         id="path4479-23"
         style="stroke-width:0.26458332"
         d="m 53.722433,66.517459 c 0.0026,1.524019 -0.180502,2.896052 -0.546233,4.10642 -0.357547,1.197076 -0.830141,2.097464 -1.412885,2.702957 -0.398306,0.412819 -0.83814,0.689449 -1.317772,0.832073 -0.468864,0.140994 -1.077823,0.163153 -1.818825,0.06967 0,0 -1.952482,-0.24632 -1.952482,-0.24632 0,0 -0.04684,-15.0308 -0.04684,-15.0308 0,0 1.935491,-0.232726 1.935491,-0.232726 0.789956,-0.09499 1.431387,-0.05811 1.914667,0.114323 0.494383,0.167368 0.918258,0.433054 1.268719,0.797994 0.607122,0.640065 1.088831,1.536704 1.439455,2.689715 0.354115,1.16449 0.533899,2.566555 0.536701,4.196694 0,0 0,0 0,0 m -1.274248,-0.03753 c -0.0025,-1.289952 -0.127329,-2.373704 -0.373067,-3.246176 -0.244031,-0.86641 -0.603612,-1.532745 -1.074979,-1.998536 -0.338659,-0.333347 -0.694401,-0.550638 -1.066586,-0.653523 -0.367967,-0.108784 -0.802686,-0.139497 -1.301344,-0.09361 0,0 -0.984599,0.0906 -0.984599,0.0906 0,0 0.03438,11.791425 0.03438,11.791425 0,0 0.982817,0.09643 0.982817,0.09643 0.515908,0.05062 0.971815,0.02145 1.364968,-0.08916 0.401825,-0.111635 0.773977,-0.356853 1.115371,-0.737622 0.430926,-0.479971 0.756327,-1.137922 0.97298,-1.973333 0.222171,-0.841069 0.332585,-1.90456 0.330058,-3.18649 0,0 0,0 0,0" />
      <path
         inkscape:connector-curvature="0"
         id="path4481-94"
         style="stroke-width:0.26458332"
         d="m 64.61141,56.789037 c 0,0 -4.323971,18.91063 -4.323971,18.91063 0,0 -1.935626,-0.244194 -1.935626,-0.244194 0,0 -3.701241,-17.468731 -3.701241,-17.468731 0,0 1.396636,-0.167934 1.396636,-0.167934 0,0 3.295048,15.585943 3.295048,15.585943 0,0 3.597199,-16.414676 3.597199,-16.414676 0,0 1.671955,-0.201038 1.671955,-0.201038" />
      <path
         inkscape:connector-curvature="0"
         id="path4483-47"
         style="stroke-width:0.26458332"
         d="m 79.269158,76.396106 c -0.955435,0.467392 -1.978272,0.844284 -3.063453,1.132612 -1.052392,0.272638 -2.048264,0.343881 -2.990666,0.220484 -1.185449,-0.15522 -2.243879,-0.518847 -3.183534,-1.084577 -0.919328,-0.553493 -1.686473,-1.298471 -2.309304,-2.233411 -0.619685,-0.930747 -1.091417,-2.050952 -1.420146,-3.363336 -0.326222,-1.311249 -0.487828,-2.824687 -0.486673,-4.54866 0.0021,-3.159238 0.612245,-5.694244 1.859235,-7.647242 1.293282,-2.025587 3.132603,-3.209861 5.588253,-3.516145 0.890445,-0.111062 1.816868,-0.0731 2.780891,0.118623 0.992508,0.184882 2.083521,0.585313 3.279214,1.210018 0,0 -0.01217,3.653029 -0.01217,3.653029 0,0 -0.213488,0.01355 -0.213488,0.01355 -0.24311,-0.231849 -0.593913,-0.532016 -1.050001,-0.898704 -0.451688,-0.363151 -0.891665,-0.657638 -1.320188,-0.884492 -0.51346,-0.267065 -1.090935,-0.470022 -1.729871,-0.609606 -0.622832,-0.148123 -1.321434,-0.183677 -2.092012,-0.109191 -1.687077,0.16308 -2.978755,1.038543 -3.9075,2.604114 -0.901866,1.521195 -1.346622,3.510089 -1.34918,5.990016 -0.0027,2.61306 0.458539,4.672736 1.399154,6.206244 0.961813,1.558764 2.309331,2.439582 4.079399,2.621436 0.667017,0.06853 1.340951,0.04496 2.021918,-0.07284 0.698865,-0.118915 1.319642,-0.303156 1.85888,-0.553549 0,0 0.01589,-5.507799 0.01589,-5.507799 0,0 -4.295794,-0.134136 -4.295794,-0.134136 0,0 0.0051,-2.50623 0.0051,-2.50623 0,0 6.568986,0.01605 6.568986,0.01605 0,0 -0.03294,9.883742 -0.03294,9.883742" />
    </g>
    <g
       aria-label="DVG"
       style="font-style:normal;font-weight:normal;font-size:10.58333302px;line-height:2.25;font-family:sans-serif;letter-spacing:0px;word-spacing:0px;fill:#000000;fill-opacity:1;stroke:none;stroke-width:0.26458332"
       id="text4467-56"
       transform="rotate(-0.33610718,81.386065,569.55606)">
      <path
         inkscape:connector-curvature="0"
         id="path4479-6"
         style="stroke-width:0.26458332"
         d="m 53.722433,66.517459 c 0.0026,1.524019 -0.180502,2.896052 -0.546233,4.10642 -0.357547,1.197076 -0.830141,2.097464 -1.412885,2.702957 -0.398306,0.412819 -0.83814,0.689449 -1.317772,0.832073 -0.468864,0.140994 -1.077823,0.163153 -1.818825,0.06967 0,0 -1.952482,-0.24632 -1.952482,-0.24632 0,0 -0.04684,-15.0308 -0.04684,-15.0308 0,0 1.935491,-0.232726 1.935491,-0.232726 0.789956,-0.09499 1.431387,-0.05811 1.914667,0.114323 0.494383,0.167368 0.918258,0.433054 1.268719,0.797994 0.607122,0.640065 1.088831,1.536704 1.439455,2.689715 0.354115,1.16449 0.533899,2.566555 0.536701,4.196694 0,0 0,0 0,0 m -1.274248,-0.03753 c -0.0025,-1.289952 -0.127329,-2.373704 -0.373067,-3.246176 -0.244031,-0.86641 -0.603612,-1.532745 -1.074979,-1.998536 -0.338659,-0.333347 -0.694401,-0.550638 -1.066586,-0.653523 -0.367967,-0.108784 -0.802686,-0.139497 -1.301344,-0.09361 0,0 -0.984599,0.0906 -0.984599,0.0906 0,0 0.03438,11.791425 0.03438,11.791425 0,0 0.982817,0.09643 0.982817,0.09643 0.515908,0.05062 0.971815,0.02145 1.364968,-0.08916 0.401825,-0.111635 0.773977,-0.356853 1.115371,-0.737622 0.430926,-0.479971 0.756327,-1.137922 0.97298,-1.973333 0.222171,-0.841069 0.332585,-1.90456 0.330058,-3.18649 0,0 0,0 0,0" />
      <path
         inkscape:connector-curvature="0"
         id="path4481-0"
         style="stroke-width:0.26458332"
         d="m 64.61141,56.789037 c 0,0 -4.323971,18.91063 -4.323971,18.91063 0,0 -1.935626,-0.244194 -1.935626,-0.244194 0,0 -3.701241,-17.468731 -3.701241,-17.468731 0,0 1.396636,-0.167934 1.396636,-0.167934 0,0 3.295048,15.585943 3.295048,15.585943 0,0 3.597199,-16.414676 3.597199,-16.414676 0,0 1.671955,-0.201038 1.671955,-0.201038" />
      <path
         inkscape:connector-curvature="0"
         id="path4483-85"
         style="stroke-width:0.26458332"
         d="m 79.269158,76.396106 c -0.955435,0.467392 -1.978272,0.844284 -3.063453,1.132612 -1.052392,0.272638 -2.048264,0.343881 -2.990666,0.220484 -1.185449,-0.15522 -2.243879,-0.518847 -3.183534,-1.084577 -0.919328,-0.553493 -1.686473,-1.298471 -2.309304,-2.233411 -0.619685,-0.930747 -1.091417,-2.050952 -1.420146,-3.363336 -0.326222,-1.311249 -0.487828,-2.824687 -0.486673,-4.54866 0.0021,-3.159238 0.612245,-5.694244 1.859235,-7.647242 1.293282,-2.025587 3.132603,-3.209861 5.588253,-3.516145 0.890445,-0.111062 1.816868,-0.0731 2.780891,0.118623 0.992508,0.184882 2.083521,0.585313 3.279214,1.210018 0,0 -0.01217,3.653029 -0.01217,3.653029 0,0 -0.213488,0.01355 -0.213488,0.01355 -0.24311,-0.231849 -0.593913,-0.532016 -1.050001,-0.898704 -0.451688,-0.363151 -0.891665,-0.657638 -1.320188,-0.884492 -0.51346,-0.267065 -1.090935,-0.470022 -1.729871,-0.609606 -0.622832,-0.148123 -1.321434,-0.183677 -2.092012,-0.109191 -1.687077,0.16308 -2.978755,1.038543 -3.9075,2.604114 -0.901866,1.521195 -1.346622,3.510089 -1.34918,5.990016 -0.0027,2.61306 0.458539,4.672736 1.399154,6.206244 0.961813,1.558764 2.309331,2.439582 4.079399,2.621436 0.667017,0.06853 1.340951,0.04496 2.021918,-0.07284 0.698865,-0.118915 1.319642,-0.303156 1.85888,-0.553549 0,0 0.01589,-5.507799 0.01589,-5.507799 0,0 -4.295794,-0.134136 -4.295794,-0.134136 0,0 0.0051,-2.50623 0.0051,-2.50623 0,0 6.568986,0.01605 6.568986,0.01605 0,0 -0.03294,9.883742 -0.03294,9.883742" />
    </g>
    <g
       aria-label="DVG"
       style="font-style:normal;font-weight:normal;font-size:10.58333302px;line-height:2.25;font-family:sans-serif;letter-spacing:0px;word-spacing:0px;fill:#000000;fill-opacity:1;stroke:none;stroke-width:0.26458332"
       id="text4467-8"
       transform="rotate(-0.33610718,53.279606,666.08498)">
      <path
         inkscape:connector-curvature="0"
         id="path4479-7"
         style="stroke-width:0.26458332"
         d="m 53.722433,66.517459 c 0.0026,1.524019 -0.180502,2.896052 -0.546233,4.10642 -0.357547,1.197076 -0.830141,2.097464 -1.412885,2.702957 -0.398306,0.412819 -0.83814,0.689449 -1.317772,0.832073 -0.468864,0.140994 -1.077823,0.163153 -1.818825,0.06967 0,0 -1.952482,-0.24632 -1.952482,-0.24632 0,0 -0.04684,-15.0308 -0.04684,-15.0308 0,0 1.935491,-0.232726 1.935491,-0.232726 0.789956,-0.09499 1.431387,-0.05811 1.914667,0.114323 0.494383,0.167368 0.918258,0.433054 1.268719,0.797994 0.607122,0.640065 1.088831,1.536704 1.439455,2.689715 0.354115,1.16449 0.533899,2.566555 0.536701,4.196694 0,0 0,0 0,0 m -1.274248,-0.03753 c -0.0025,-1.289952 -0.127329,-2.373704 -0.373067,-3.246176 -0.244031,-0.86641 -0.603612,-1.532745 -1.074979,-1.998536 -0.338659,-0.333347 -0.694401,-0.550638 -1.066586,-0.653523 -0.367967,-0.108784 -0.802686,-0.139497 -1.301344,-0.09361 0,0 -0.984599,0.0906 -0.984599,0.0906 0,0 0.03438,11.791425 0.03438,11.791425 0,0 0.982817,0.09643 0.982817,0.09643 0.515908,0.05062 0.971815,0.02145 1.364968,-0.08916 0.401825,-0.111635 0.773977,-0.356853 1.115371,-0.737622 0.430926,-0.479971 0.756327,-1.137922 0.97298,-1.973333 0.222171,-0.841069 0.332585,-1.90456 0.330058,-3.18649 0,0 0,0 0,0" />
      <path
         inkscape:connector-curvature="0"
         id="path4481-00"
         style="stroke-width:0.26458332"
         d="m 64.61141,56.789037 c 0,0 -4.323971,18.91063 -4.323971,18.91063 0,0 -1.935626,-0.244194 -1.935626,-0.244194 0,0 -3.701241,-17.468731 -3.701241,-17.468731 0,0 1.396636,-0.167934 1.396636,-0.167934 0,0 3.295048,15.585943 3.295048,15.585943 0,0 3.597199,-16.414676 3.597199,-16.414676 0,0 1.671955,-0.201038 1.671955,-0.201038" />
      <path
         inkscape:connector-curvature="0"
         id="path4483-79"
         style="stroke-width:0.26458332"
         d="m 79.269158,76.396106 c -0.955435,0.467392 -1.978272,0.844284 -3.063453,1.132612 -1.052392,0.272638 -2.048264,0.343881 -2.990666,0.220484 -1.185449,-0.15522 -2.243879,-0.518847 -3.183534,-1.084577 -0.919328,-0.553493 -1.686473,-1.298471 -2.309304,-2.233411 -0.619685,-0.930747 -1.091417,-2.050952 -1.420146,-3.363336 -0.326222,-1.311249 -0.487828,-2.824687 -0.486673,-4.54866 0.0021,-3.159238 0.612245,-5.694244 1.859235,-7.647242 1.293282,-2.025587 3.132603,-3.209861 5.588253,-3.516145 0.890445,-0.111062 1.816868,-0.0731 2.780891,0.118623 0.992508,0.184882 2.083521,0.585313 3.279214,1.210018 0,0 -0.01217,3.653029 -0.01217,3.653029 0,0 -0.213488,0.01355 -0.213488,0.01355 -0.24311,-0.231849 -0.593913,-0.532016 -1.050001,-0.898704 -0.451688,-0.363151 -0.891665,-0.657638 -1.320188,-0.884492 -0.51346,-0.267065 -1.090935,-0.470022 -1.729871,-0.609606 -0.622832,-0.148123 -1.321434,-0.183677 -2.092012,-0.109191 -1.687077,0.16308 -2.978755,1.038543 -3.9075,2.604114 -0.901866,1.521195 -1.346622,3.510089 -1.34918,5.990016 -0.0027,2.61306 0.458539,4.672736 1.399154,6.206244 0.961813,1.558764 2.309331,2.439582 4.079399,2.621436 0.667017,0.06853 1.340951,0.04496 2.021918,-0.07284 0.698865,-0.118915 1.319642,-0.303156 1.85888,-0.553549 0,0 0.01589,-5.507799 0.01589,-5.507799 0,0 -4.295794,-0.134136 -4.295794,-0.134136 0,0 0.0051,-2.50623 0.0051,-2.50623 0,0 6.568986,0.01605 6.568986,0.01605 0,0 -0.03294,9.883742 -0.03294,9.883742" />
    </g>
    <path
       style="fill:none;stroke:#000000;stroke-width:0.26458332px;stroke-linecap:butt;stroke-linejoin:miter;stroke-opacity:1"
       d="m 52.357803,58.019216 c 0.121181,-0.206179 3.375178,-0.171989 3.375178,-0.171989 v 0"
       id="path4659"
       inkscape:connector-curvature="0" />
    <path
       style="fill:none;stroke:#000000;stroke-width:0.26458332px;stroke-linecap:butt;stroke-linejoin:miter;stroke-opacity:1"
       d="m 59.36625,56.943889 5.193318,-0.175422"
       id="path4661"
       inkscape:connector-curvature="0" />
    <path
       style="fill:none;stroke:#000000;stroke-width:0.26458332px;stroke-linecap:butt;stroke-linejoin:miter;stroke-opacity:1"
       d="m 54.887007,75.43588 3.778208,0.589452 1.681387,-0.321194"
       id="path4663"
       inkscape:connector-curvature="0" />
    <path
       style="fill:none;stroke:#000000;stroke-width:0.26458332px;stroke-linecap:butt;stroke-linejoin:miter;stroke-opacity:1"
       d="m 76.323692,60.358435 3.594999,-0.132411"
       id="path4665"
       inkscape:connector-curvature="0" />
    <path
       style="fill:none;stroke:#000000;stroke-width:0.26458332px;stroke-linecap:butt;stroke-linejoin:miter;stroke-opacity:1"
       d="m 71.066289,69.134793 -1.841183,-0.236064 v 0"
       id="path4667"
       inkscape:connector-curvature="0" />
    <path
       style="fill:none;stroke:#000000;stroke-width:0.26458332px;stroke-linecap:butt;stroke-linejoin:miter;stroke-opacity:1"
       d="M 43.767726,74.19441 43.200989,74.031194"
       id="path4669"
       inkscape:connector-curvature="0" />
  </g>
</svg>
